<?xml version="1.0" encoding="UTF-8" standalone="no"?>
<!-- Created with Inkscape (http://www.inkscape.org/) -->

<svg
   width="500"
   height="500"
   viewBox="0 0 132.29167 132.29167"
   version="1.1"
   id="svg5"
   inkscape:version="1.1 (c68e22c387, 2021-05-23)"
   sodipodi:docname="nova_logos_v_1.svg"
   xmlns:inkscape="http://www.inkscape.org/namespaces/inkscape"
   xmlns:sodipodi="http://sodipodi.sourceforge.net/DTD/sodipodi-0.dtd"
   xmlns="http://www.w3.org/2000/svg"
   xmlns:svg="http://www.w3.org/2000/svg">
  <sodipodi:namedview
     id="namedview7"
     pagecolor="#ffffff"
     bordercolor="#666666"
     borderopacity="1.0"
     inkscape:pageshadow="2"
     inkscape:pageopacity="0.0"
     inkscape:pagecheckerboard="0"
     inkscape:document-units="mm"
     showgrid="false"
     inkscape:snap-others="false"
     inkscape:object-nodes="false"
     inkscape:snap-nodes="false"
     inkscape:zoom="0.32"
     inkscape:cx="495.3125"
     inkscape:cy="96.875"
     inkscape:window-width="1416"
     inkscape:window-height="1008"
     inkscape:window-x="-7"
     inkscape:window-y="0"
     inkscape:window-maximized="0"
     inkscape:current-layer="layer1"
     width="500px"
     units="px" />
  <defs
     id="defs2" />
  <g
     inkscape:label="Capa 1"
     inkscape:groupmode="layer"
     id="layer1">
    <path
       style="fill:#0d3b66;fill-opacity:1;stroke:#0d3b66;stroke-width:0.960921px;stroke-linecap:butt;stroke-linejoin:miter;stroke-opacity:1"
       d="m -540.80307,579.41677 0.28365,271.20313 c 0,0 24.98671,-12.1851 35.32854,-21.2295 6.24882,-5.465 11.36477,-12.2822 15.5575,-19.4469 1.94848,-3.3297 4.76318,-7.5063 6.3325,-12.1502 2.88665,-8.542 3.30417,-15.902 3.30417,-15.902 l 1.54436,-20.7174 9.5e-4,-126.33348 z"
       id="path206268-2"
       sodipodi:nodetypes="ccssscccc" />
    <path
       style="fill:#b0c4de;fill-opacity:1;stroke:#c3fafe;stroke-width:0.960921px;stroke-linecap:butt;stroke-linejoin:miter;stroke-opacity:1"
       d="m -297.59537,845.5778 -0.28364,-271.20307 c 0,0 -24.98665,12.18509 -35.32847,21.22951 -6.24882,5.46493 -11.36477,12.28213 -15.5575,19.4469 -1.94848,3.32967 -4.76319,7.50628 -6.3325,12.15016 -2.88665,8.54203 -3.30417,15.90205 -3.30417,15.90205 l -1.54436,20.71735 -9.5e-4,126.3335 z"
       id="path206270-7"
       sodipodi:nodetypes="ccssscccc" />
    <path
       style="fill:#1e78aa;fill-opacity:1;stroke:#1d70a2;stroke-width:0.960921px;stroke-linecap:butt;stroke-linejoin:miter;stroke-opacity:1"
       d="m -478.45144,634.84042 0.65384,42.34245 117.8506,112.97133 -0.27928,-50.63336 z"
       id="path206272-3" />
    <path
       style="fill:#000000;fill-opacity:1;stroke:#000000;stroke-width:2.45122px;stroke-linecap:butt;stroke-linejoin:miter;stroke-opacity:1"
       d="m 827.87571,-572.95776 0.72263,691.81289 c 0,0 63.73852,-31.082985 90.11905,-54.154435 15.94042,-13.9405 28.99125,-31.33053 39.68614,-49.60717 4.97038,-8.4936497 12.15033,-19.1477698 16.1535,-30.99386 7.36339,-21.789901 8.4288,-40.564502 8.4288,-40.564502 l 3.93924,-52.847963 0.003,-322.26457 z"
       id="path206268-7"
       sodipodi:nodetypes="ccssscccc" />
    <path
       style="fill:#c2fbfe;fill-opacity:1;stroke:#c3fafe;stroke-width:2.45122px;stroke-linecap:butt;stroke-linejoin:miter;stroke-opacity:1"
       d="m 1476.9196,138.73391 -0.7226,-691.81289 c 0,0 -63.7385,31.08298 -90.119,54.15443 -15.9405,13.94051 -28.9904,31.33053 -39.6862,49.60717 -4.9704,8.49365 -12.1503,19.14777 -16.1535,30.99386 -7.3634,21.7899 -8.4279,40.56459 -8.4279,40.56459 l -3.9401,52.84797 V -2.6464824 Z"
       id="path206270-8"
       sodipodi:nodetypes="ccssscccc" />
    <path
       style="fill:#1e78aa;fill-opacity:1;stroke:#1d70a2;stroke-width:2.45122px;stroke-linecap:butt;stroke-linejoin:miter;stroke-opacity:1"
       d="m 999.79113,-416.37642 1.66757,108.01148 300.626,288.178894 -0.7134,-129.160754 z"
       id="path206272-6" />
    <path
       style="fill:#00caff;fill-opacity:1;stroke:none;stroke-width:2.45122px;stroke-linecap:butt;stroke-linejoin:miter;stroke-opacity:0.294118"
       d="m 827.87571,357.80837 0.72263,691.81293 c 0,0 63.73852,-31.083 90.11905,-54.15447 15.94042,-13.9405 28.99125,-31.33053 39.68614,-49.60717 4.97038,-8.49365 12.15033,-19.14777 16.1535,-30.99386 7.36339,-21.78991 8.4288,-40.56451 8.4288,-40.56451 l 3.93924,-52.84796 0.003,-322.26457 z"
       id="path242153"
       sodipodi:nodetypes="ccssscccc" />
    <path
       style="fill:#c2fbfe;fill-opacity:1;stroke:none;stroke-width:2.45122px;stroke-linecap:butt;stroke-linejoin:miter;stroke-opacity:1"
       d="m 1476.9196,1033.1198 -0.7226,-691.81286 c 0,0 -63.7385,31.08298 -90.119,54.15443 -15.9405,13.94051 -28.9904,31.33053 -39.6862,49.60717 -4.9704,8.49365 -12.1503,19.14777 -16.1535,30.99386 -7.3634,21.7899 -8.4279,40.56459 -8.4279,40.56459 l -3.9401,52.84797 v 322.26448 z"
       id="path242155"
       sodipodi:nodetypes="ccssscccc" />
    <path
       style="fill:#1e78aa;fill-opacity:1;stroke:none;stroke-width:2.45122px;stroke-linecap:butt;stroke-linejoin:miter;stroke-opacity:1"
       d="m 996.86789,500.50422 0.0598,109.32695 305.88791,269.90851 -0.01,-109.73934 z"
       id="path242157"
       sodipodi:nodetypes="ccccc" />
    <path
       style="fill:#00caff;fill-opacity:1;stroke:none;stroke-width:0.348427px;stroke-linecap:butt;stroke-linejoin:miter;stroke-opacity:0.294118"
       d="m 16.570601,15.419242 -0.0038,98.339958 c 0,0 9.166554,-4.42088 12.916399,-7.70036 2.265842,-1.98156 4.120945,-4.45346 5.641164,-7.051387 0.706511,-1.20732 1.727101,-2.72175 2.29613,-4.40559 1.04667,-3.09733 1.198111,-5.76603 1.198111,-5.76603 l 0.559939,-7.51204 v -45.80811 z"
       id="path261765"
       sodipodi:nodetypes="ccssscccc" />
    <path
       style="fill:#a3a3a3;fill-opacity:1;stroke:none;stroke-width:0.348427px;stroke-linecap:butt;stroke-linejoin:miter;stroke-opacity:1"
       d="m 108.62491,112.53618 0.008,-98.329998 c 0,0 -9.170246,4.410926 -12.920086,7.690397 -2.26585,1.981564 -4.12082,4.45347 -5.64117,7.051384 -0.70652,1.20732 -1.7271,2.72176 -2.29613,4.40561 -1.04667,3.09732 -1.19798,5.76602 -1.19798,5.76602 l -0.56006,7.51205 v 45.8081 z"
       id="path261767"
       sodipodi:nodetypes="ccssscccc" />
    <path
       style="fill:#1e78aa;fill-opacity:1;stroke:none;stroke-width:0.348427px;stroke-linecap:butt;stroke-linejoin:miter;stroke-opacity:1"
       d="m 40.847734,36.980103 0.009,15.54021 43.48027,38.36599 -10e-4,-15.59883 z"
       id="path261769"
       sodipodi:nodetypes="ccccc" />
  </g>
</svg>
